<?xml version="1.0" encoding="UTF-8"?>
<svg version="1.1" xmlns="http://www.w3.org/2000/svg" width="2242" height="803">
<path d="M0 0 C1.31841726 -0.00235223 2.63683452 -0.00470446 3.99520382 -0.00712797 C7.66033635 -0.01351597 11.32544693 -0.01369055 14.99058396 -0.01285056 C18.97614173 -0.0130203 22.96169168 -0.01892915 26.94724554 -0.02409142 C34.8548959 -0.03341334 42.76254066 -0.03733879 50.67019583 -0.03961039 C60.14140724 -0.04257359 69.61261124 -0.05127178 79.08381876 -0.06002467 C101.97868328 -0.0808669 124.87354909 -0.09133912 147.76842089 -0.10015428 C158.60226748 -0.10436171 169.43611351 -0.10958362 180.26995964 -0.11483881 C217.36388346 -0.13273016 254.45780744 -0.14772502 291.55173492 -0.155159 C293.88047893 -0.15563375 296.20922293 -0.15610964 298.53796693 -0.15658666 C300.27022266 -0.15694122 300.27022266 -0.15694122 302.03747344 -0.15730295 C307.8883497 -0.15850413 313.73922595 -0.15971959 319.5901022 -0.16094494 C320.75122259 -0.16118509 321.91234299 -0.16142524 323.10864885 -0.16167267 C360.73951882 -0.16956239 398.37035724 -0.19298688 436.00121343 -0.22550088 C475.7966799 -0.25982229 515.59212791 -0.27951235 555.38760942 -0.28280324 C559.75903095 -0.28322077 564.13045246 -0.28370033 568.50187397 -0.28422642 C569.57822254 -0.28434961 570.6545711 -0.2844728 571.76353629 -0.28459973 C589.06394771 -0.28692904 606.36432242 -0.30257415 623.66472077 -0.32306826 C641.06668136 -0.34335503 658.46859799 -0.34879011 675.87056822 -0.33929763 C686.19955597 -0.33409354 696.52839705 -0.33990839 706.85736359 -0.3618323 C713.77020467 -0.3753919 720.68294538 -0.37421807 727.59578758 -0.36143034 C731.52600234 -0.35456781 735.45593778 -0.35374546 739.386127 -0.37099043 C785.2372619 -0.55953708 824.3535025 11.52315622 857.64356899 44.32172108 C887.06551874 73.98526252 900.35919492 111.77687708 900.28599453 153.11382008 C900.28973609 155.12638966 900.29433962 157.13895779 900.29972517 159.15152365 C900.31190828 164.655065 900.31170025 170.15854535 900.30933642 175.6620971 C900.30892706 181.608503 900.31997888 187.55488965 900.32945156 193.50128651 C900.34603745 205.14224503 900.35158602 216.78318483 900.35267632 228.42415404 C900.35359727 237.89209861 900.35772362 247.36003664 900.36407757 256.82797909 C900.36587281 259.55856579 900.36765244 262.2891525 900.36942732 265.01973921 C900.36986942 265.69868103 900.37031152 266.37762285 900.37076701 267.07713866 C900.38306772 286.16312838 900.39096894 305.24911584 900.39008045 324.33510971 C900.39004929 325.05401536 900.39001814 325.77292102 900.38998604 326.51361169 C900.38981983 330.15686837 900.38962175 333.80012504 900.38941662 337.44338172 C900.38935678 338.52861783 900.38935678 338.52861783 900.38929574 339.63577789 C900.38921487 341.09885244 900.38913127 342.56192698 900.38904496 344.02500152 C900.38782032 366.77180147 900.40281966 389.51854172 900.43019009 412.26532459 C900.46096962 437.85551407 900.478119 463.44566433 900.47626364 489.03587347 C900.4761144 491.76928937 900.47601697 494.50270527 900.47595501 497.23612118 C900.47592005 498.24558034 900.47592005 498.24558034 900.47588438 499.27543261 C900.47582684 509.39854281 900.48641867 519.52160578 900.50261974 529.64470196 C900.52088247 541.17246125 900.52513724 552.70012271 900.5116009 564.22789025 C900.50509658 570.10202249 900.50486187 575.97596733 900.5223074 581.85008144 C900.53815615 587.24234347 900.5350553 592.63427135 900.51773913 598.0265258 C900.51469498 599.96258736 900.51820222 601.8986746 900.52945928 603.83470582 C900.67388867 630.46841866 894.72470912 654.76513923 882.01856899 678.13422108 C881.46427212 679.18093983 880.90997524 680.22765858 880.33888149 681.30609608 C862.61182151 713.36747728 830.87273158 738.28464912 796.01856899 749.13422108 C781.88451548 753.1160398 768.58974787 755.28685861 753.9001236 755.26564884 C752.56570979 755.26730046 751.23129646 755.26938764 749.89688393 755.27186894 C746.22900944 755.27741985 742.56115837 755.27676608 738.89328102 755.27509135 C734.90308848 755.27435905 730.91290248 755.27938604 726.92271274 755.28366637 C719.00815852 755.29124061 711.09361105 755.29343914 703.17905358 755.29399543 C693.69901572 755.29490964 684.21898408 755.30157889 674.7389489 755.30834225 C651.82624602 755.32439882 628.91354381 755.33030515 606.00083631 755.335091 C595.16043186 755.3374273 584.32002793 755.34102999 573.47962388 755.34478638 C536.36782015 755.3576216 499.25601672 755.3683408 462.14421082 755.37178898 C459.81473682 755.37201061 457.48526283 755.37223239 455.15578884 755.37245433 C452.82070619 755.37267497 450.48562354 755.37289545 448.15054089 755.37311578 C443.46600664 755.37355833 438.78147238 755.37400544 434.09693813 755.37445545 C432.93544683 755.37456484 431.77395552 755.37467423 430.57726751 755.37478694 C392.91813792 755.37841736 355.25902759 755.39433697 317.59990538 755.41764582 C277.77940777 755.44224734 237.95892118 755.45596197 198.13841575 755.4571569 C193.76625693 755.45732835 189.3940981 755.45754378 185.02193928 755.45779133 C183.9454001 755.4578471 182.86886092 755.45790287 181.75969934 755.45796032 C164.44255602 755.45911049 147.12543248 755.47012957 129.80829585 755.48467838 C112.39870678 755.49905184 94.98914304 755.50227557 77.57954968 755.49423841 C67.24064342 755.48978617 56.90181896 755.49362656 46.56292347 755.50947691 C39.64988549 755.51924364 32.73690466 755.5180325 25.82386717 755.50804068 C21.88949357 755.50266088 17.95527676 755.50189884 14.02091629 755.5145494 C-15.78753058 755.60446679 -15.78753058 755.60446679 -29.98143101 752.13422108 C-31.41858822 751.80365267 -31.41858822 751.80365267 -32.88477892 751.46640611 C-52.51814423 746.81048291 -71.24368307 737.70798313 -86.98143101 725.13422108 C-88.40068882 724.0436742 -88.40068882 724.0436742 -89.84861851 722.93109608 C-112.25878596 705.28229565 -128.61634566 682.07987084 -137.98143101 655.13422108 C-138.20669468 654.48695057 -138.43195835 653.83968006 -138.66404819 653.1727953 C-144.93796835 634.74035798 -146.43767808 615.91791834 -146.36238194 596.56549549 C-146.36584928 594.58655589 -146.37062098 592.60761823 -146.37656367 590.62868452 C-146.3889556 585.25526599 -146.3829578 579.88200964 -146.37360501 574.50859094 C-146.36676587 568.68845252 -146.37731967 562.86834034 -146.38554478 557.04820728 C-146.39883278 545.67202575 -146.39602645 534.29590385 -146.38730685 522.91972005 C-146.38051121 513.66791731 -146.3796217 504.41613119 -146.3828783 495.16432667 C-146.38310746 494.50475771 -146.38333661 493.84518876 -146.38357271 493.16563286 C-146.38450687 490.48759875 -146.38546209 487.80956465 -146.386452 485.13153056 C-146.39560975 460.05741264 -146.38733927 434.98332709 -146.37116131 409.90921418 C-146.35692664 387.67804679 -146.35820062 365.44693098 -146.37254429 343.21576405 C-146.38864081 318.18476398 -146.39496004 293.15379248 -146.3857075 268.12278795 C-146.38474548 265.44989714 -146.38380695 262.77700631 -146.3828783 260.10411549 C-146.38241548 258.78925636 -146.38195265 257.47439724 -146.3814758 256.11969391 C-146.37889358 246.88696513 -146.38324028 237.65425474 -146.39031696 228.42152882 C-146.39876065 217.15854357 -146.39639176 205.895621 -146.38047473 194.63264287 C-146.37263051 188.89430523 -146.36943423 183.15607179 -146.37942219 177.4177351 C-146.38844998 172.15109806 -146.38330505 166.8846605 -146.36748953 161.61804122 C-146.36417559 159.72665434 -146.36575796 157.83525012 -146.3731169 155.94387466 C-146.50867881 118.1638499 -136.04218898 82.05048027 -110.98143101 53.13422108 C-110.29693882 52.32855701 -109.61244663 51.52289295 -108.90721226 50.69281483 C-85.84622252 24.23684994 -54.59420038 6.97793539 -19.98143101 1.13422108 C-18.55748983 0.87516309 -18.55748983 0.87516309 -17.10478216 0.61087161 C-11.43554765 -0.18380944 -5.71230877 -0.00690865 0 0 Z " fill="#FCD000" transform="translate(1316.9814310073853,18.865778923034668)"/>
<path d="M0 0 C0.81162598 0.10715332 1.62325195 0.21430664 2.45947266 0.32470703 C13.20581395 1.76805727 23.61119046 3.84378072 34 7 C34.75410156 7.22107422 35.50820312 7.44214844 36.28515625 7.66992188 C63.11081796 15.61427916 87.97045933 28.44826019 109 47 C109.49725586 47.43699219 109.99451172 47.87398437 110.50683594 48.32421875 C116.76473692 53.85067676 122.76358777 59.47480339 128 66 C128.75667969 66.93070312 129.51335938 67.86140625 130.29296875 68.8203125 C140.68728127 81.8275035 148.97569459 95.92846985 156 111 C156.53367187 112.13824219 157.06734375 113.27648437 157.6171875 114.44921875 C182.25973531 169.41614534 184.26437386 242.37463361 164 299 C163.72849121 299.7822998 163.45698242 300.56459961 163.17724609 301.37060547 C150.22260108 338.46051955 127.8219011 370.74187038 96 394 C95.14462646 394.62986816 95.14462646 394.62986816 94.27197266 395.27246094 C71.62754761 411.73062178 44.42868965 422.74339609 17 428 C16.32098633 428.13599609 15.64197266 428.27199219 14.94238281 428.41210938 C9.97903496 429.39967882 5.00337657 430.24260291 0 431 C-0.67562988 431.10586426 -1.35125977 431.21172852 -2.04736328 431.32080078 C-34.09657807 436.13696047 -69.74280183 434.17172794 -101 426 C-102.18650146 425.69304199 -102.18650146 425.69304199 -103.39697266 425.37988281 C-136.23627323 416.68081646 -165.598126 400.60399256 -190 377 C-190.49983398 376.52594727 -190.99966797 376.05189453 -191.51464844 375.56347656 C-219.5797386 348.92210689 -237.55862229 311.6929399 -245 274 C-245.28399658 272.56865723 -245.28399658 272.56865723 -245.57373047 271.10839844 C-246.48835003 266.42955979 -247.37081905 261.74498679 -248.203125 257.05078125 C-248.33364258 256.31512939 -248.46416016 255.57947754 -248.59863281 254.8215332 C-249.76207474 246.64276289 -250.1690326 238.56537662 -250.203125 230.30859375 C-250.20882507 229.20564468 -250.21452515 228.10269562 -250.22039795 226.96632385 C-250.2298003 224.63584333 -250.23636285 222.30534979 -250.24023438 219.97485352 C-250.2498295 216.49925772 -250.28085326 213.02428282 -250.3125 209.54882812 C-250.40950742 189.39108099 -249.03569245 169.35520092 -243.8125 149.8125 C-243.51061768 148.65234375 -243.20873535 147.4921875 -242.89770508 146.296875 C-233.64753345 111.73381383 -217.37500075 82.19338447 -193 56 C-192.38769531 55.33355469 -191.77539062 54.66710937 -191.14453125 53.98046875 C-143.42796226 4.02559589 -65.85744112 -9.12641612 0 0 Z " fill="#FFFFFF" transform="translate(1957,183)"/>
<path d="M0 0 C2.63011872 0.01070341 5.25955044 0.00004361 7.88964844 -0.01269531 C19.14252746 -0.02242293 30.1179622 0.73932331 41.26464844 2.26074219 C42.91424561 2.47972168 42.91424561 2.47972168 44.59716797 2.703125 C89.7243908 9.03442914 133.42178629 28.64277019 161.54980469 65.54199219 C173.68970038 81.93697836 182.79509181 100.70943227 187.38964844 120.57324219 C187.6482666 121.67321533 187.90688477 122.77318848 188.17333984 123.90649414 C190.36460676 133.38025368 192.26464844 142.49992763 192.26464844 152.26074219 C156.29464844 152.26074219 120.32464844 152.26074219 83.26464844 152.26074219 C81.61464844 145.66074219 79.96464844 139.06074219 78.26464844 132.26074219 C74.50944572 122.66411303 70.65574494 114.32104271 64.26464844 106.26074219 C63.83023437 105.65230469 63.39582031 105.04386719 62.94824219 104.41699219 C52.4823634 90.67076333 34.47650651 84.65832557 18.18652344 81.70214844 C-8.68322279 78.67796385 -32.30454033 83.35756713 -53.73535156 100.26074219 C-54.46753906 100.81761719 -55.19972656 101.37449219 -55.95410156 101.94824219 C-76.08626811 118.3942374 -86.64395908 146.06932902 -91.29736328 170.92871094 C-91.58250184 172.44690689 -91.88037226 173.96278475 -92.19287109 175.47558594 C-94.78850713 188.22136288 -95.02507876 200.92817081 -95.04785156 213.88574219 C-95.05143677 214.70182953 -95.05502197 215.51791687 -95.05871582 216.35873413 C-95.09967347 233.70669413 -93.38654139 250.66116995 -90.11035156 267.69824219 C-89.92060257 268.68615753 -89.92060257 268.68615753 -89.72702026 269.69403076 C-87.41572964 281.53087228 -83.97712865 292.40221346 -78.73535156 303.26074219 C-78.44547363 303.88029785 -78.1555957 304.49985352 -77.85693359 305.13818359 C-68.45626869 324.99866595 -52.80466303 341.11280308 -32.12988281 349.12792969 C-6.85168406 357.56369222 20.34356609 356.51617471 44.45214844 344.69824219 C67.06841822 332.23621598 77.03844183 311.32625869 86.26464844 288.26074219 C59.53464844 288.26074219 32.80464844 288.26074219 5.26464844 288.26074219 C5.26464844 260.21074219 5.26464844 232.16074219 5.26464844 203.26074219 C65.98464844 203.26074219 126.70464844 203.26074219 189.26464844 203.26074219 C189.26464844 276.85074219 189.26464844 350.44074219 189.26464844 426.26074219 C161.21464844 426.26074219 133.16464844 426.26074219 104.26464844 426.26074219 C99.69908892 402.29155474 99.69908892 402.29155474 98.70214844 394.63574219 C98.46640515 392.91031246 98.22939318 391.18505567 97.99121094 389.45996094 C97.87422852 388.60966309 97.75724609 387.75936523 97.63671875 386.88330078 C96.61208676 379.66112435 95.42509776 372.46211212 94.26464844 365.26074219 C92.68117109 367.63595822 91.7284478 369.39143776 90.73999023 371.99438477 C90.45596848 372.7355806 90.17194672 373.47677643 89.87931824 374.24043274 C89.57721939 375.03733017 89.27512054 375.8342276 88.96386719 376.65527344 C88.31004336 378.35011746 87.65573094 380.04477306 87.00097656 381.73925781 C85.97565775 384.40341994 84.95385554 387.06874554 83.94067383 389.73754883 C82.95887355 392.31845181 81.9624937 394.89334239 80.96386719 397.46777344 C80.66784103 398.25859818 80.37181488 399.04942291 80.06681824 399.86421204 C74.81305685 413.30216958 62.38345762 419.28054162 49.79199219 424.88183594 C28.34922807 433.26422324 5.82314055 435.69664206 -17.04785156 435.63574219 C-17.8641806 435.63486603 -18.68050964 435.63398987 -19.52157593 435.63308716 C-50.56370216 435.52432587 -80.80770979 430.2381136 -108.73535156 416.26074219 C-109.72003418 415.77951904 -109.72003418 415.77951904 -110.72460938 415.28857422 C-153.02834912 394.49574757 -180.93863683 356.39200554 -196.26245117 312.60058594 C-200.25087119 300.69154809 -203.06632969 288.79776396 -205.23535156 276.44824219 C-205.35945404 275.74689148 -205.48355652 275.04554077 -205.61141968 274.32293701 C-208.53935574 257.48204482 -208.94549948 240.76690003 -208.97558594 223.71289062 C-208.98523195 220.4264943 -209.01632879 217.14074118 -209.04785156 213.85449219 C-209.14825835 194.03337594 -207.68237634 174.28419086 -202.54785156 155.07324219 C-202.24596924 153.91308594 -201.94408691 152.75292969 -201.63305664 151.55761719 C-194.7715968 125.91992465 -184.23408668 102.81472467 -168.73535156 81.26074219 C-168.30174316 80.65069336 -167.86813477 80.04064453 -167.42138672 79.41210938 C-156.31330772 63.96150744 -142.33907321 50.13548317 -126.73535156 39.26074219 C-126.17348145 38.85984375 -125.61161133 38.45894531 -125.03271484 38.04589844 C-88.74274374 12.22360811 -44.31403538 -0.21360121 0 0 Z " fill="#FFFFFF" transform="translate(1456.7353515625,180.7392578125)"/>
<path d="M0 0 C1.04929688 0.54269531 2.09859375 1.08539063 3.1796875 1.64453125 C27.79286899 15.0610002 46.35317579 39.02208403 54.46875 65.671875 C65.19163694 103.00832942 62.70741866 144.00401728 43.98046875 178.24707031 C30.81990681 201.77616262 11.35514906 218.57992187 -11 233 C-7.47429338 240.43838105 -3.57764989 247.54372528 0.63134766 254.60888672 C4.75597797 261.54515251 8.75742384 268.54976178 12.75 275.5625 C17.78635871 284.40297037 22.85842952 293.22010857 28 302 C33.00759282 310.55541029 37.96154939 319.14024385 42.875 327.75 C43.20788025 328.3332605 43.5407605 328.916521 43.88372803 329.51745605 C46.59800516 334.27436898 49.30942831 339.03290718 52.02075195 343.79150391 C54.38751432 347.94508974 56.75538434 352.09804123 59.125 356.25 C59.45671204 356.83125641 59.78842407 357.41251282 60.13018799 358.01138306 C64.79341906 366.1789315 69.50275948 374.31848627 74.25 382.4375 C75.38154173 384.3775859 76.51305261 386.3176898 77.64453125 388.2578125 C79.3520647 391.18458386 81.06401574 394.10843662 82.78662109 397.02636719 C84.51241952 399.94999511 86.22587062 402.88056105 87.9375 405.8125 C88.72785645 407.13882446 88.72785645 407.13882446 89.53417969 408.49194336 C90.00629883 409.30542236 90.47841797 410.11890137 90.96484375 410.95703125 C91.3837085 411.66835205 91.80257324 412.37967285 92.23413086 413.11254883 C93 415 93 415 92 418 C65.2196445 421.00037077 39.56948385 422.98375181 12.69970703 420.25146484 C10.2664642 420.02481987 7.84235231 419.86670275 5.40234375 419.73828125 C4.09394531 419.63902344 2.78554687 419.53976562 1.4375 419.4375 C-0.23505859 419.34275391 -0.23505859 419.34275391 -1.94140625 419.24609375 C-6.79340789 417.26935234 -8.50142495 413.44632509 -11 409 C-11.49346924 408.12593506 -11.98693848 407.25187012 -12.49536133 406.35131836 C-14.06849616 403.49936077 -15.60038203 400.62816521 -17.125 397.75 C-21.29678199 389.96128004 -25.52925148 382.2200209 -29.9375 374.5625 C-34.29784809 366.98455554 -38.60836251 359.38114877 -42.875 351.75 C-43.45942871 350.70481201 -44.04385742 349.65962402 -44.64599609 348.58276367 C-45.8353922 346.45473989 -47.02451853 344.32656531 -48.21337891 342.19824219 C-51.16058535 336.92242851 -54.11089729 331.64835522 -57.0625 326.375 C-57.64241699 325.33891602 -58.22233398 324.30283203 -58.81982422 323.23535156 C-63.22757142 315.36622279 -67.6623324 307.51262311 -72.10571289 299.66357422 C-76.68563509 291.56847336 -81.22967662 283.45355836 -85.76953125 275.3359375 C-89.66158213 268.3802989 -93.57390028 261.43646838 -97.5 254.5 C-98.55739307 252.62896356 -99.61468385 250.7578693 -100.671875 248.88671875 C-102.7436022 245.21996152 -104.81958549 241.55566415 -106.89892578 237.89321899 C-108.51977259 235.03513975 -110.13428808 232.17348427 -111.75 229.3125 C-112.66362305 227.70761719 -112.66362305 227.70761719 -113.59570312 226.0703125 C-114.15708984 225.07386719 -114.71847656 224.07742188 -115.296875 223.05078125 C-115.79541992 222.17075439 -116.29396484 221.29072754 -116.80761719 220.3840332 C-117.88536109 218.2292074 -118.53742536 216.35346785 -119 214 C-117.86046875 213.40574219 -116.7209375 212.81148437 -115.546875 212.19921875 C-110.35469245 209.48475791 -105.17620583 206.74477664 -100 204 C-99.12972168 203.54061035 -98.25944336 203.0812207 -97.36279297 202.60791016 C-70.78052598 188.526086 -46.50065271 171.88653415 -36.96875 141.73828125 C-31.52231236 120.02817567 -34.90704854 96.33514858 -46.3125 77.1875 C-57.74779686 60.13229229 -77.86945288 53.82610942 -97 50 C-109.54 50 -122.08 50 -135 50 C-135 171.44 -135 292.88 -135 418 C-162.8754491 421.63592814 -162.8754491 421.63592814 -172 422 C-173.48886719 422.061875 -173.48886719 422.061875 -175.0078125 422.125 C-183.26063957 422.28721773 -191.45880514 421.70589483 -199.6875 421.125 C-200.82791748 421.04660889 -201.96833496 420.96821777 -203.14331055 420.88745117 C-204.25488525 420.80342041 -205.36645996 420.71938965 -206.51171875 420.6328125 C-207.98838013 420.52283936 -207.98838013 420.52283936 -209.49487305 420.41064453 C-214.36293825 419.84032443 -219.17769998 418.87678182 -224 418 C-224 273.79 -224 129.58 -224 -19 C-66.05092525 -35.11725253 -66.05092525 -35.11725253 0 0 Z " fill="#FFFFFF" transform="translate(242,191)"/>
<path d="M0 0 C1.15086594 -0.00855011 1.15086594 -0.00855011 2.32498169 -0.01727295 C3.94352875 -0.02666225 5.56209441 -0.03323256 7.18066406 -0.03710938 C9.59216186 -0.04671311 12.00276761 -0.07775146 14.4140625 -0.109375 C46.35116839 -0.32826915 77.82665834 9.5182426 101.7578125 31.203125 C102.31404297 31.70569824 102.87027344 32.20827148 103.44335938 32.72607422 C134.19450135 60.98507038 147.13960254 101.95124224 148.8671875 142.78857422 C149.35818815 158.92101434 148.41150199 175.28098806 145.7578125 191.203125 C79.4278125 191.203125 13.0978125 191.203125 -55.2421875 191.203125 C-50.78772863 213.47541937 -46.51027727 230.75701393 -27.6328125 244.0390625 C4.75037804 264.52456149 47.97271889 260.13313536 83.5246582 252.2644043 C90.75133862 250.57181128 97.81809785 248.4503832 104.82202148 245.99487305 C111.32260294 243.76831015 111.32260294 243.76831015 114.7578125 245.203125 C115.86694336 246.75927734 115.86694336 246.75927734 116.72265625 248.7890625 C117.20677979 249.92396118 117.20677979 249.92396118 117.70068359 251.08178711 C118.02891113 251.90557861 118.35713867 252.72937012 118.6953125 253.578125 C119.04158691 254.42576416 119.38786133 255.27340332 119.74462891 256.14672852 C126.6620288 273.60776658 129.78818269 291.52499291 130.7578125 310.203125 C112.72688493 317.58298215 94.28208618 322.02838102 75.0703125 325.015625 C74.05807617 325.1734697 74.05807617 325.1734697 73.02539062 325.33450317 C57.11784392 327.78441086 41.5751061 328.44365732 25.5078125 328.453125 C23.96663254 328.45413712 23.96663254 328.45413712 22.39431763 328.45516968 C7.32202158 328.43943767 -7.40947019 328.15312109 -22.2421875 325.203125 C-23.14565918 325.02620117 -24.04913086 324.84927734 -24.97998047 324.66699219 C-60.42044223 317.4833663 -93.61335452 299.69033529 -114.2421875 269.203125 C-141.58772218 226.44970022 -147.20507561 170.64664061 -136.9765625 121.60595703 C-128.14375132 81.78732876 -107.96275785 44.60715984 -73.1328125 21.82080078 C-51.30822143 7.99455058 -25.92903951 0.15486158 0 0 Z M-33.2421875 80.203125 C-33.85964844 80.72648437 -34.47710938 81.24984375 -35.11328125 81.7890625 C-46.18921823 91.90294705 -52.62258363 108.48165102 -54.2421875 123.203125 C-54.2421875 125.513125 -54.2421875 127.823125 -54.2421875 130.203125 C-14.3121875 130.203125 25.6178125 130.203125 66.7578125 130.203125 C64.44422832 110.53765951 60.46856103 90.7371671 44.6171875 77.40234375 C22.44407333 60.70098195 -12.38357464 61.87873613 -33.2421875 80.203125 Z " fill="#FFFFFF" transform="translate(971.2421875,287.796875)"/>
<path d="M0 0 C0.83249771 -0.00701431 1.66499542 -0.01402863 2.52272034 -0.02125549 C5.2014004 -0.03868421 7.87985902 -0.04510996 10.55859375 -0.046875 C11.47582214 -0.04754974 12.39305054 -0.04822449 13.33807373 -0.04891968 C27.74921124 -0.03209048 41.79677569 0.54428855 55.99609375 3.203125 C56.95032227 3.38004883 57.90455078 3.55697266 58.88769531 3.73925781 C91.68474937 10.00434996 91.68474937 10.00434996 104.99609375 17.203125 C103.52839859 32.63323593 100.59034153 47.027762 95.55859375 61.703125 C95.28249268 62.51563721 95.0063916 63.32814941 94.72192383 64.1652832 C92.69677182 69.86011106 90.07479724 75.00650323 86.99609375 80.203125 C81.23709174 78.52287997 75.54541033 76.71523112 69.87109375 74.765625 C45.39342183 66.49849674 14.09399209 60.03899657 -10.66015625 70.3046875 C-16.36220999 73.17422753 -20.29836313 76.66547903 -23.109375 82.49609375 C-25.21145114 88.85739839 -25.15760263 96.6461251 -22.31640625 102.765625 C-15.42299265 115.50283778 6.40059834 119.39980689 19.01757812 123.1640625 C21.32255828 123.84496438 23.62789942 124.52464543 25.93359375 125.203125 C54.82940329 133.71926995 89.95989315 144.08840119 105.65625 172.4375 C117.2346172 196.33687021 119.33169635 227.94007986 110.70703125 253.0859375 C100.22673837 281.7054753 78.47576167 302.24817268 51.35742188 315.15087891 C31.27262162 324.10099151 9.01364125 328.29276486 -12.91015625 328.40625 C-14.28195793 328.41683945 -14.28195793 328.41683945 -15.68147278 328.42764282 C-48.39430413 328.6226476 -78.23655766 326.08073543 -109.44140625 315.515625 C-110.72120361 315.08781738 -110.72120361 315.08781738 -112.02685547 314.65136719 C-114.05543433 313.93003846 -116.03654919 313.07774122 -118.00390625 312.203125 C-119.4109851 307.98188844 -118.5510454 304.54341042 -117.87890625 300.203125 C-117.74129883 299.31173828 -117.60369141 298.42035156 -117.46191406 297.50195312 C-115.33140473 284.40463543 -111.70336061 271.8576023 -107.37890625 259.328125 C-107.08983398 258.48958984 -106.80076172 257.65105469 -106.50292969 256.78710938 C-105.02378873 252.63328759 -103.47044617 248.89546052 -101.00390625 245.203125 C-95.90784444 246.71090475 -90.82569269 248.24962079 -85.76953125 249.88671875 C-68.96698373 255.26874922 -51.72544737 259.59983849 -34.00390625 260.203125 C-32.96105469 260.2546875 -31.91820312 260.30625 -30.84375 260.359375 C-12.1003428 260.87584087 8.31085772 257.58026892 22.99609375 245.203125 C28.03489189 240.42272676 29.86922316 233.99460391 30.09765625 227.16796875 C29.70279136 219.7313466 28.61616867 213.58522687 23.03515625 208.37109375 C9.86825199 198.33187605 -7.82322557 194.70862926 -23.44140625 190.203125 C-59.68380917 179.72986148 -59.68380917 179.72986148 -71.37890625 172.828125 C-72.03971191 172.4458374 -72.70051758 172.0635498 -73.38134766 171.66967773 C-79.02282884 168.33319186 -84.12715548 164.59054193 -89.00390625 160.203125 C-89.844375 159.49027344 -90.68484375 158.77742187 -91.55078125 158.04296875 C-105.22544102 145.63217905 -111.18566025 126.62075147 -112.14477539 108.54882812 C-113.00526058 82.99737815 -109.72555164 59.42025558 -93.00390625 39.203125 C-92.35035156 38.37554687 -91.69679688 37.54796875 -91.0234375 36.6953125 C-71.64328918 13.49731133 -40.54269346 3.58671563 -11.43031311 0.41876221 C-7.61971264 0.08011033 -3.82382582 0.02171145 0 0 Z " fill="#FFFFFF" transform="translate(669.00390625,287.796875)"/>
<path d="M0 0 C26.8880019 18.69858433 40.12520207 46.70347298 46.625 78 C49.89082993 97.28578857 50.26162459 116.73856395 49.875 136.25 C49.86194824 137.48242432 49.86194824 137.48242432 49.84863281 138.73974609 C49.60947713 157.92580495 45.37979387 177.23830812 38.875 195.25 C38.32585937 196.77173828 38.32585937 196.77173828 37.765625 198.32421875 C31.35891152 214.75787765 21.94401247 230.33393006 7.875 241.25 C6.77091797 242.10851562 6.77091797 242.10851562 5.64453125 242.984375 C-16.50254858 259.31468509 -42.08966152 263.52365866 -68.9375 260.5625 C-92.09587959 256.93226752 -112.80667438 244.86382331 -127.125 226.25 C-149.00724518 195.85799281 -154.59017581 159.58463509 -154.4375 123 C-154.43534485 122.06322418 -154.4331897 121.12644836 -154.43096924 120.1612854 C-154.28086065 79.37469888 -146.26848804 40.69810597 -117.5 10.1875 C-104.4540818 -2.55782101 -88.59418297 -8.77707544 -71.125 -12.75 C-70.51188965 -12.9257959 -69.8987793 -13.1015918 -69.26708984 -13.28271484 C-46.71237813 -18.20290156 -19.2500943 -12.28988321 0 0 Z " fill="#FCD000" transform="translate(1972.125,274.75)"/>
<path d="M0 0 C41.58 0 83.16 0 126 0 C126 103.62 126 207.24 126 314 C102.0546697 317.59179954 102.0546697 317.59179954 90 318 C88.40478516 318.061875 88.40478516 318.061875 86.77734375 318.125 C78.90220034 318.27810121 71.09890286 317.72321337 63.25 317.125 C62.19627197 317.04660889 61.14254395 316.96821777 60.05688477 316.88745117 C59.03264404 316.80342041 58.00840332 316.71938965 56.953125 316.6328125 C55.59429199 316.52283936 55.59429199 316.52283936 54.20800781 316.41064453 C49.76883133 315.84240291 45.3884887 314.87769774 41 314 C41 232.16 41 150.32 41 66 C27.47 66 13.94 66 0 66 C-3.3809282 47.96838296 -3.3809282 47.96838296 -3.3984375 41.30859375 C-3.40130768 40.58994644 -3.40417786 39.87129913 -3.40713501 39.13087463 C-3.40913812 37.64168489 -3.40387871 36.15246646 -3.39111328 34.66333008 C-3.37497784 32.4344392 -3.39110427 30.20735361 -3.41015625 27.97851562 C-3.40817361 26.50520449 -3.4043295 25.03189444 -3.3984375 23.55859375 C-3.39505371 22.27267334 -3.39166992 20.98675293 -3.38818359 19.66186523 C-2.83631607 13.03424866 -1.30428081 6.52140405 0 0 Z " fill="#FFFFFF" transform="translate(359,295)"/>
<path d="M0 0 C3.00285752 9.17539799 3.15614218 18.86332796 3.16796875 28.44140625 C3.17296135 29.89123146 3.17296135 29.89123146 3.17805481 31.37034607 C3.18308531 33.40485158 3.18546434 35.43936523 3.18530273 37.47387695 C3.18747706 40.53025502 3.20564136 43.58626424 3.22460938 46.64257812 C3.2520222 55.74354298 3.14515684 64.78338581 2.17578125 73.83984375 C2.10642868 74.54371719 2.03707611 75.24759064 1.96562195 75.97279358 C1.72387695 77.90991211 1.72387695 77.90991211 1 81 C-2.55112679 83.36741786 -5.55926001 83.6774584 -9.69140625 84.109375 C-10.87290001 84.23551178 -10.87290001 84.23551178 -12.07826233 84.36419678 C-21.64556297 85.28622637 -31.21830896 85.30000573 -40.82202148 85.26074219 C-43.93037466 85.25002457 -47.0381486 85.26070344 -50.14648438 85.2734375 C-82.40966989 85.29516506 -82.40966989 85.29516506 -89 82 C-91.2010903 75.05433728 -91.56321151 67.47233433 -92.125 60.25 C-92.2084668 59.18652344 -92.29193359 58.12304688 -92.37792969 57.02734375 C-93.2673964 45.13390319 -93.05762857 33.63291234 -92.125 21.75 C-92.04668945 20.74324219 -91.96837891 19.73648438 -91.88769531 18.69921875 C-91.34222414 12.35419774 -90.39364437 6.21411491 -89 0 C-61.52780781 -4.34634682 -26.89344231 -8.96448077 0 0 Z " fill="#FFFFFF" transform="translate(476,161)"/>
</svg>
